<svg width="81" height="80" viewBox="0 0 81 80" fill="none" xmlns="http://www.w3.org/2000/svg">
<path d="M6.42597 20.5809L40.5 1.15115L74.574 20.5809V59.4191L40.5 78.8488L6.42597 59.4191V20.5809Z" fill="white" stroke="#002A43" stroke-width="2"/>
<path d="M40 59.102C50.5498 59.102 59.102 50.5498 59.102 40C59.102 29.4502 50.5498 20.898 40 20.898C29.4502 20.898 20.898 29.4502 20.898 40C20.898 50.5498 29.4502 59.102 40 59.102Z" fill="#002A43"/>
<path d="M40 63.5102C52.9843 63.5102 63.5102 52.9843 63.5102 40C63.5102 27.0157 52.9843 16.4898 40 16.4898C27.0157 16.4898 16.4898 27.0157 16.4898 40C16.4898 52.9843 27.0157 63.5102 40 63.5102Z" stroke="#002A43" stroke-width="0.979592"/>
<path d="M60.0816 30.2041C61.4342 30.2041 62.5306 29.1076 62.5306 27.7551C62.5306 26.4026 61.4342 25.3061 60.0816 25.3061C58.7291 25.3061 57.6327 26.4026 57.6327 27.7551C57.6327 29.1076 58.7291 30.2041 60.0816 30.2041Z" fill="#01FFA9" stroke="#002A43" stroke-width="0.979592"/>
<path d="M22.3673 58.6123C23.7199 58.6123 24.8163 57.5158 24.8163 56.1633C24.8163 54.8107 23.7199 53.7143 22.3673 53.7143C21.0148 53.7143 19.9184 54.8107 19.9184 56.1633C19.9184 57.5158 21.0148 58.6123 22.3673 58.6123Z" fill="#01FFA9" stroke="#002A43" stroke-width="0.979592"/>
<path d="M34.8988 34.6676C36.0511 34.6676 36.9853 33.7334 36.9853 32.5811C36.9853 31.4287 36.0511 30.4945 34.8988 30.4945C33.7464 30.4945 32.8122 31.4287 32.8122 32.5811C32.8122 33.7334 33.7464 34.6676 34.8988 34.6676Z" fill="#01FFA9" stroke="#01FFA9" stroke-width="1.04327"/>
<path d="M45.3324 49.2743C46.4848 49.2743 47.4189 48.3401 47.4189 47.1878C47.4189 46.0354 46.4848 45.1012 45.3324 45.1012C44.18 45.1012 43.2459 46.0354 43.2459 47.1878C43.2459 48.3401 44.18 49.2743 45.3324 49.2743Z" fill="#01FFA9" stroke="#01FFA9" stroke-width="1.04327"/>
<path d="M38.5507 31.0162H45.854V34.146H38.5507V31.0162ZM41.6805 48.7527H35.4209V45.6229H41.6805V48.7527ZM49.7959 37.8812L45.3976 42.2795L43.7479 40.6299L48.1463 36.2315L49.7959 37.8812ZM30.2041 41.8465L34.6024 37.4482L36.2521 39.0978L31.8537 43.4962L30.2041 41.8465Z" fill="#01FFA9"/>
<path d="M46.8973 31.0162V40.4056H43.7675V31.0162H46.8973ZM33.1017 48.712V39.3221H36.2315V48.7115L33.1017 48.712Z" fill="#01FFA9"/>
<path d="M42.2873 36.2305L46.8591 40.8028L45.2095 42.4524L40.6372 37.8802L42.2873 36.2305ZM37.7131 43.4972L33.1414 38.9254L34.791 37.2758L39.3628 41.8475L37.7131 43.4972Z" fill="#01FFA9"/>
</svg>
